<?xml version="1.0" standalone="no"?><!-- Generator: Gravit.io --><svg xmlns="http://www.w3.org/2000/svg" xmlns:xlink="http://www.w3.org/1999/xlink" style="isolation:isolate" width="126" height="146"><radialGradient id="_rgradient_0" fx="56.096286655742155%" fy="60.65215597862272%" cx="50%" cy="50%" r="50%" gradientTransform="matrix(1.117316650425781 0.00015077272668635334 1.0829220483094678e-15 0.9999999999999996 -0.058658325212890494 -0.00007538636334312853)"><stop offset="33.63636363636363%" style="stop-color:rgb(10,73,173)"/><stop offset="100%" style="stop-color:rgb(1,1,91)"/><stop offset="100%" style="stop-color:rgb(0,0,0)"/></radialGradient><polygon points="122.6337493066984,107.92389851208219,62.45743235599855,141.95,2.506366098600438,107.56878023406114,2.731616791902127,39.16145898020454,62.90793374260193,5.135357492286772,122.85900000000004,39.51657725822551" fill="url(#_rgradient_0)" stroke-width="1" stroke="rgba(0,0,0,0)" stroke-linejoin="miter" stroke-linecap="square"/><clipPath id="_clipPath_GrhIF2Kq8FpPkOa42nVEpypNSKpcDNDJ"><rect x="0.7199999999999989" y="0" width="124.56" height="146" transform="matrix(1,0,0,1,0,0)" fill="none" stroke-width="1" stroke="rgba(0,0,0,0)" stroke-linejoin="miter" stroke-linecap="square"/></clipPath><g clip-path="url(#_clipPath_GrhIF2Kq8FpPkOa42nVEpypNSKpcDNDJ)"><clipPath id="_clipPath_rZplqoEHrmQ6T1GMUbHYacb0JyDfXkpr"><path d=" M 3.1420000000000416 107.47200000000001 L 3.1420000000000416 38.527 L 63.00000000000004 4.050000000000011 L 122.85900000000004 38.527 L 122.85900000000004 107.47200000000001 L 63.00000000000004 141.95 L 3.1420000000000416 107.47200000000001 Z " fill="rgb(255,255,255)" stroke-width="1" stroke="rgba(0,0,0,0)" stroke-linejoin="miter" stroke-linecap="square"/></clipPath><g clip-path="url(#_clipPath_rZplqoEHrmQ6T1GMUbHYacb0JyDfXkpr)"><rect x="-1.5669376999999685" y="44.978996300000034" width="129.1345214" height="129.129837" transform="matrix(1,0,0,1,0,0)" fill="rgba(0,0,0,0)" stroke-width="1" stroke="rgba(0,0,0,0)" stroke-linejoin="miter" stroke-linecap="square"/></g><path d=" M 0.7200000000000415 37.12790000000001 L 0.7200000000000415 108.87190000000001 L 63.00000000000004 144.74490000000003 L 125.28000000000004 108.87190000000001 L 125.28000000000004 37.12790000000001 L 63.00000000000004 1.2559000000000111 L 0.7200000000000415 37.12790000000001 Z  M 5.564000000000042 106.0729 L 5.564000000000042 39.92790000000001 L 63.00000000000004 6.845900000000011 L 120.43600000000004 39.92790000000001 L 120.43600000000004 106.0729 L 63.00000000000004 139.1549 L 5.564000000000042 106.0729 Z " fill="rgb(170,178,188)" stroke-width="1" stroke="rgba(0,0,0,0)" stroke-linejoin="miter" stroke-linecap="square"/><path d=" M 22.318654394531265 49.6160712890625 Q 23.510781738281263 49.6160712890625 24.35165727539064 49.65332373046875 Q 25.192532812500012 49.690576171874994 25.76198649902345 49.78104638671875 Q 26.33144018554689 49.8715166015625 26.661404003906263 50.009882812499995 Q 26.991367822265637 50.1482490234375 27.16167172851564 50.419659667968745 Q 27.33197563476564 50.6910703125 27.37987360839845 50.96248095703125 Q 27.427771582031262 51.2338916015625 27.427771582031262 51.58512890625 Q 27.427771582031262 51.96829687499999 27.37987360839845 52.28228173828125 Q 27.33197563476564 52.5962666015625 27.151027734375013 52.8517119140625 Q 26.97007983398439 53.1071572265625 26.618828027343763 53.28809765625 Q 26.26757622070314 53.4690380859375 25.660868554687514 53.5967607421875 Q 25.054160888671888 53.7244833984375 24.154743383789075 53.78302294921875 Q 23.255325878906262 53.841562499999995 21.97804658203126 53.841562499999995 Q 20.573039355468765 53.841562499999995 19.6523338623047 53.76173583984375 Q 18.731628369140637 53.681909179687494 18.188784667968765 53.45839453124999 Q 17.64594096679689 53.2348798828125 17.427739086914077 52.83574658203125 Q 17.209537207031264 52.43661328125 17.209537207031264 51.798 L 15.165890332031264 51.798 Q 15.165890332031264 52.766563476562496 15.511820141601577 53.437107421875 Q 15.85774995117189 54.1076513671875 16.656049511718763 54.52807177734375 Q 17.45434907226564 54.948492187499994 18.7582383544922 55.140076171874995 Q 20.062127636718763 55.331660156249995 21.97804658203126 55.331660156249995 Q 23.510781738281263 55.331660156249995 24.665655102539077 55.24118994140625 Q 25.820528466796887 55.1507197265625 26.65076000976564 54.96445751953125 Q 27.480991552734388 54.7781953125 28.029157250976574 54.474854003906245 Q 28.57732294921876 54.1715126953125 28.896642773437513 53.75109228515625 Q 29.215962597656265 53.33067187499999 29.343690527343764 52.78252880859375 Q 29.471418457031263 52.2343857421875 29.471418457031263 51.5425546875 Q 29.471418457031263 50.8507236328125 29.343690527343764 50.323867675781244 Q 29.215962597656265 49.79701171875 28.901964770507824 49.408521972656246 Q 28.58796694335939 49.0200322265625 28.066411230468766 48.69008203125 Q 27.54485551757814 48.360131835937494 26.746555957031262 48.200478515624994 Q 25.94825639648439 48.0408251953125 24.857246997070327 47.9769638671875 Q 23.766237597656264 47.9131025390625 22.318654394531265 47.9131025390625 Q 21.126527050781263 47.9131025390625 20.285651513671887 47.90778076171875 Q 19.444775976562514 47.902458984375 18.875322290039076 47.84391943359375 Q 18.305868603515638 47.7853798828125 17.975904785156263 47.66830078125 Q 17.64594096679689 47.5512216796875 17.475637060546887 47.32770703125 Q 17.30533315429689 47.1041923828125 17.257435180664075 46.75827685546875 Q 17.209537207031264 46.412361328125 17.209537207031264 46.050480468749996 Q 17.209537207031264 45.433154296875 17.486281054687513 45.0819169921875 Q 17.763024902343766 44.7306796875 18.401664550781263 44.560382812499995 Q 19.040304199218763 44.3900859375 20.083415625000015 44.34751171875 Q 21.126527050781263 44.3049375 22.65926220703126 44.3049375 Q 24.064269433593765 44.3049375 24.984974926757825 44.38476416015625 Q 25.90568041992189 44.464590820312495 26.44852412109376 44.67214013671875 Q 26.991367822265637 44.879689453124996 27.20956970214845 45.2415703125 Q 27.427771582031262 45.603451171875 27.427771582031262 46.178203124999996 L 29.471418457031263 46.178203124999996 Q 29.471418457031263 45.2522138671875 29.16274262695314 44.581669921875 Q 28.854066796875014 43.9111259765625 28.0823772216797 43.46941845703125 Q 27.31068764648439 43.0277109375 25.996154370117203 42.81483984375 Q 24.681621093750014 42.60196875 22.65926220703126 42.60196875 Q 20.615615332031265 42.60196875 19.189320117187513 42.7829091796875 Q 17.763024902343766 42.963849609374996 16.868929394531264 43.37362646484375 Q 15.974833886718764 43.7834033203125 15.570362109375013 44.43798193359375 Q 15.165890332031264 45.092560546875 15.165890332031264 46.050480468749996 Q 15.165890332031264 46.752955078125 15.293618261718764 47.35431591796875 Q 15.421346191406265 47.9556767578125 15.73002202148439 48.36545361328125 Q 16.038697851562514 48.775230468749996 16.565575561523453 49.0200322265625 Q 17.092453271484388 49.264833984375 17.88543083496095 49.39787841796875 Q 18.678408398437515 49.530922851562494 19.77473979492189 49.5734970703125 Q 20.871071191406266 49.6160712890625 22.318654394531265 49.6160712890625 Z  M 31.855673144531263 49.094537109375 Q 31.855673144531263 47.817310546875 31.983401074218765 46.838103515624994 Q 32.111129003906264 45.858896484374995 32.43577082519533 45.135134765625 Q 32.76041264648439 44.411373046875 33.30857834472658 43.927091308593745 Q 33.856744042968764 43.4428095703125 34.69229758300783 43.1447900390625 Q 35.52785112304689 42.8467705078125 36.677402490234385 42.7190478515625 Q 37.826953857421884 42.5913251953125 39.35968901367189 42.5913251953125 Q 41.40333588867189 42.5913251953125 42.72319116210939 42.84144873046875 Q 44.043046435546884 43.091572265625 44.80941401367188 43.60778466796875 Q 45.57578159179689 44.1239970703125 45.87381342773439 44.91694189453125 Q 46.17184526367189 45.70988671875 46.17184526367189 46.80617285156249 L 44.12819838867189 46.80617285156249 Q 44.12819838867189 46.412361328125 44.10691040039064 46.071767578125 Q 44.08562241210939 45.731173828124994 43.95257248535158 45.45444140625 Q 43.81952255859376 45.177708984375 43.53213471679689 44.959516113281246 Q 43.24474687500002 44.7413232421875 42.712547167968765 44.592313476562495 Q 42.18034746093751 44.4433037109375 41.3660819091797 44.368798828125 Q 40.551816357421885 44.294293945312496 39.35968901367189 44.294293945312496 Q 37.99725776367189 44.294293945312496 37.065908276367196 44.3900859375 Q 36.13455878906251 44.4858779296875 35.52785112304689 44.70407080078125 Q 34.92114345703126 44.922263671875 34.59117963867189 45.289466308593745 Q 34.261215820312515 45.6566689453125 34.11219990234376 46.1888466796875 Q 33.963183984375014 46.7210244140625 33.93657399902345 47.43946435546874 Q 33.90996401367189 48.157904296875 33.90996401367189 49.094537109375 Q 33.90996401367189 50.009882812499995 33.93657399902345 50.71767919921875 Q 33.963183984375014 51.4254755859375 34.11219990234376 51.95233154296875 Q 34.261215820312515 52.479187499999995 34.59117963867189 52.841068359375 Q 34.92114345703126 53.20294921875 35.52785112304689 53.42646386718749 Q 36.13455878906251 53.649978515624994 37.065908276367196 53.745770507812495 Q 37.99725776367189 53.841562499999995 39.35968901367189 53.841562499999995 Q 40.551816357421885 53.841562499999995 41.3660819091797 53.7564140625 Q 42.18034746093751 53.671265625 42.712547167968765 53.5116123046875 Q 43.24474687500002 53.351958984375 43.53213471679689 53.11780078125 Q 43.81952255859376 52.883642578125 43.95257248535158 52.58030126953125 Q 44.08562241210939 52.2769599609375 44.10691040039064 51.909757324218745 Q 44.12819838867189 51.5425546875 44.12819838867189 51.116812499999995 L 46.17184526367189 51.116812499999995 Q 46.17184526367189 52.2343857421875 45.87381342773439 53.053939453125 Q 45.57578159179689 53.873493164062495 44.80941401367188 54.40034912109375 Q 44.043046435546884 54.927205078125 42.72319116210939 55.182650390625 Q 41.40333588867189 55.438095703125 39.35968901367189 55.438095703125 Q 37.826953857421884 55.438095703125 36.677402490234385 55.310373046875 Q 35.52785112304689 55.182650390625 34.69229758300783 54.889952636718746 Q 33.856744042968764 54.59725488281249 33.30857834472658 54.118294921875 Q 32.76041264648439 53.6393349609375 32.43577082519533 52.9368603515625 Q 32.111129003906264 52.2343857421875 31.983401074218765 51.28178759765625 Q 31.855673144531263 50.329189453125 31.855673144531263 49.094537109375 Z  M 61.10536904296876 53.522255859374994 Q 61.07343706054689 53.649978515624994 60.62638930664064 54.160869140624996 Q 60.30706948242189 54.544037109375 59.77486977539064 54.83673486328125 Q 59.24267006835939 55.1294326171875 58.3538965576172 55.29440771484374 Q 57.465123046875014 55.459382812499996 56.017539843750015 55.459382812499996 Q 54.09097690429689 55.459382812499996 52.72854565429689 55.26247705078124 Q 51.36611440429689 55.0655712890625 50.50395087890627 54.65579443359375 Q 49.64178735351564 54.246017578125 49.2426375732422 53.607404296874996 Q 48.843487792968766 52.968791015625 48.843487792968766 52.0853759765625 Q 48.843487792968766 51.15938671875 49.06168967285158 50.515451660156245 Q 49.27989155273439 49.8715166015625 49.700329321289075 49.43513085937499 Q 50.12076708984376 48.9987451171875 50.71683076171876 48.753943359375 Q 51.31289443359376 48.5091416015625 52.07394001464845 48.381418945312504 Q 52.83498559570314 48.2536962890625 53.73972509765626 48.221765625 Q 54.644464599609385 48.1898349609375 55.66628803710939 48.1898349609375 Q 57.12451523437501 48.1898349609375 58.10376269531251 48.31223583984375 Q 59.08301015625001 48.43463671875 59.705683813476575 48.62089892578125 Q 60.32835747070314 48.807161132812496 60.64767729492189 49.0200322265625 Q 60.966997119140636 49.2329033203125 61.10536904296876 49.41384375 Q 61.10536904296876 48.221765625 61.00425109863283 47.380924804687496 Q 60.90313315429689 46.540083984375 60.674287280273454 45.9759755859375 Q 60.44544140625001 45.4118671875 60.083545605468764 45.07659521484375 Q 59.721649804687516 44.7413232421875 59.194772094726574 44.5710263671875 Q 58.66789438476564 44.400729492187494 57.96539077148439 44.35283349609375 Q 57.262887158203135 44.3049375 56.35814765625001 44.3049375 Q 54.953140429687515 44.3049375 54.02711293945314 44.37412060546875 Q 53.101085449218765 44.4433037109375 52.55824174804689 44.64553125 Q 52.01539804687501 44.847758789062496 51.79187416992189 45.20431787109375 Q 51.568350292968766 45.560876953124996 51.568350292968766 46.13562890625 L 49.524703417968766 46.13562890625 Q 49.524703417968766 45.1670654296875 49.870633227539074 44.496521484374995 Q 50.21656303710939 43.8259775390625 51.02018459472657 43.40555712890625 Q 51.823806152343764 42.98513671875 53.13301743164064 42.793552734375 Q 54.44222871093751 42.60196875 56.35814765625001 42.60196875 Q 58.23149062500001 42.60196875 59.530057910156266 42.9106318359375 Q 60.82862519531251 43.219294921875 61.6322467529297 43.9962744140625 Q 62.43586831054689 44.77325390625 62.792442114257824 46.08773291015625 Q 63.14901591796876 47.4022119140625 63.14901591796876 49.41384375 L 63.14901591796876 55.203937499999995 L 61.10536904296876 55.203937499999995 L 61.10536904296876 53.522255859374994 Z  M 56.35814765625001 53.841562499999995 Q 57.70993491210939 53.841562499999995 58.619996411132824 53.713839843749994 Q 59.530057910156266 53.586117187499994 60.083545605468764 53.33067187499999 Q 60.63703330078126 53.0752265625 60.871201171875015 52.69205859375 Q 61.10536904296876 52.308890625 61.10536904296876 51.798 Q 61.10536904296876 51.287109375 60.83394719238282 50.930550292968746 Q 60.562525341796885 50.5739912109375 59.9292076904297 50.3504765625 Q 59.29589003906251 50.1269619140625 58.252778613281265 50.02584814453125 Q 57.20966718750001 49.924734375 55.67693203125001 49.924734375 Q 54.14419687500001 49.924734375 53.202203393554704 49.977952148437495 Q 52.26020991210939 50.031169921875 51.74929819335939 50.22275390625 Q 51.238386474609385 50.414337890625 51.062760571289076 50.7868623046875 Q 50.887134667968766 51.15938671875 50.887134667968766 51.798 Q 50.887134667968766 52.43661328125 51.0734045654297 52.83574658203125 Q 51.25967446289064 53.2348798828125 51.834450146484386 53.45839453124999 Q 52.409225830078135 53.681909179687494 53.489591235351575 53.76173583984375 Q 54.569956640625016 53.841562499999995 56.35814765625001 53.841562499999995 Z  M 77.79515185546876 49.754437499999995 Q 77.79515185546876 51.3190400390625 77.53969599609377 52.36743017578125 Q 77.28424013671876 53.4158203125 76.68285446777345 54.0437900390625 Q 76.08146879882814 54.671759765625 75.10222133789064 54.937848632812496 Q 74.12297387695314 55.203937499999995 72.68603466796876 55.203937499999995 Q 71.29167143554689 55.203937499999995 70.34435595703127 54.99106640625 Q 69.39704047851563 54.7781953125 68.81162080078127 54.2673046875 Q 68.22620112304689 53.7564140625 67.97074526367189 52.9049296875 Q 67.7152894042969 52.0534453125 67.7152894042969 50.77621875 L 67.7152894042969 44.624244140624995 L 65.19266279296876 44.624244140624995 L 65.19266279296876 42.9425625 L 67.7152894042969 42.9425625 L 67.7152894042969 39.589842773437496 L 69.75893627929689 39.589842773437496 L 69.75893627929689 42.9425625 L 77.45454404296876 42.9425625 L 77.45454404296876 44.624244140624995 L 69.75893627929689 44.624244140624995 L 69.75893627929689 50.77621875 Q 69.75893627929689 51.798 69.91327419433594 52.351464843749994 Q 70.067612109375 52.9049296875 70.40821992187502 53.160375 Q 70.74882773437501 53.4158203125 71.30763742675782 53.45839453124999 Q 71.86644711914064 53.50096875 72.67539067382813 53.50096875 Q 73.31403032226564 53.50096875 73.81962004394532 53.479681640625 Q 74.325209765625 53.45839453124999 74.70307155761719 53.34663720703125 Q 75.08093334960938 53.2348798828125 75.34703320312502 53.00604345703125 Q 75.61313305664063 52.77720703125 75.77811496582032 52.3621083984375 Q 75.94309687500001 51.947009765625 76.0176048339844 51.31371826171875 Q 76.09211279296876 50.6804267578125 76.09211279296876 49.754437499999995 L 77.79515185546876 49.754437499999995 Z  M 87.67277841796876 55.438095703125 Q 85.62913154296876 55.438095703125 84.20283632812502 55.15604150390625 Q 82.77654111328127 54.8739873046875 81.88244560546876 54.18215625 Q 80.98835009765627 53.490325195312494 80.58387832031251 52.330177734375 Q 80.17940654296876 51.1700302734375 80.17940654296876 49.41384375 Q 80.17940654296876 47.4022119140625 80.58387832031251 46.08773291015625 Q 80.98835009765627 44.77325390625 81.88244560546876 43.9962744140625 Q 82.77654111328127 43.219294921875 84.20283632812502 42.9106318359375 Q 85.62913154296876 42.60196875 87.67277841796876 42.60196875 Q 89.13100561523439 42.60196875 90.2007270263672 42.81483984375 Q 91.27044843750001 43.0277109375 92.0314940185547 43.432166015625 Q 92.79253959960938 43.83662109375 93.2661973388672 44.411373046875 Q 93.73985507812502 44.986125 94.01127692871096 45.61941650390625 Q 94.2826987792969 46.2527080078125 94.38381672363282 47.1041923828125 Q 94.48493466796876 47.9556767578125 94.48493466796876 48.902953124999996 L 94.31463076171876 49.584140625 L 82.22305341796876 49.584140625 Q 82.22305341796876 50.989089843749994 82.49979726562502 51.88847021484375 Q 82.77654111328127 52.7878505859375 83.41518076171876 53.20294921875 Q 84.05382041015626 53.618047851562494 85.09693183593751 53.72980517578125 Q 86.14004326171876 53.841562499999995 87.67277841796876 53.841562499999995 Q 89.07778564453126 53.841562499999995 89.99849113769532 53.76173583984375 Q 90.91919663085939 53.681909179687494 91.46204033203126 53.45839453124999 Q 92.00488403320314 53.2348798828125 92.22308591308595 52.83574658203125 Q 92.44128779296877 52.43661328125 92.44128779296877 51.798 L 94.48493466796876 51.798 Q 94.48493466796876 52.7878505859375 94.13900485839845 53.48500341796875 Q 93.79307504882814 54.18215625 92.99477548828126 54.61322021484375 Q 92.19647592773438 55.044284179687494 90.89258664550782 55.24118994140625 Q 89.58869736328127 55.438095703125 87.67277841796876 55.438095703125 Z  M 87.67277841796876 44.3049375 Q 86.65095498046877 44.3049375 85.84733342285158 44.34751171875 Q 85.04371186523439 44.3900859375 84.44232619628907 44.53377392578125 Q 83.84094052734376 44.6774619140625 83.41518076171876 44.94887255859375 Q 82.98942099609376 45.220283203125 82.72864313964845 45.58748583984375 Q 82.46786528320314 45.954688476562495 82.34545935058595 46.619910644531245 Q 82.22305341796876 47.285132812499995 82.22305341796876 48.221765625 L 92.44128779296877 48.221765625 Q 92.44128779296877 46.9764697265625 92.17518793945314 46.268673339843744 Q 91.90908808593751 45.560876953124996 91.33431240234377 45.1032041015625 Q 90.75953671875001 44.64553125 89.85479721679688 44.475234375 Q 88.95005771484377 44.3049375 87.67277841796876 44.3049375 Z  M 107.76863935546876 46.933895507812494 Q 107.76863935546876 46.1675595703125 107.6568774169922 45.66199072265625 Q 107.54511547851564 45.156421875 107.12999970703126 44.85308056640625 Q 106.7148839355469 44.5497392578125 105.90061838378908 44.42733837890625 Q 105.08635283203127 44.3049375 103.68134560546876 44.3049375 Q 102.30827036132814 44.3049375 101.44610683593751 44.54441748046875 Q 100.58394331054689 44.783897460937496 100.09431958007814 45.220283203125 Q 99.60469584960939 45.6566689453125 99.42906994628908 46.2633515625 Q 99.25344404296877 46.870034179687494 99.25344404296877 47.6150830078125 L 99.25344404296877 55.203937499999995 L 97.20979716796876 55.203937499999995 L 97.20979716796876 42.9425625 L 99.25344404296877 42.9425625 L 99.25344404296877 44.8903330078125 Q 99.35988398437502 44.560382812499995 99.64727182617189 44.16124951171875 Q 99.93465966796876 43.7621162109375 100.52007934570314 43.41620068359375 Q 101.10549902343752 43.07028515625 102.0368485107422 42.836126953125 Q 102.96819799804689 42.60196875 104.36256123046876 42.60196875 Q 105.95916035156252 42.60196875 106.95969580078126 42.884022949218746 Q 107.96023125 43.166077148437495 108.51904094238283 43.71422021484375 Q 109.07785063476564 44.262363281249996 109.2747645263672 45.0712734375 Q 109.47167841796876 45.88018359375 109.47167841796876 46.933895507812494 L 107.76863935546876 46.933895507812494 Z " fill-rule="evenodd" fill="rgb(237,85,100)" stroke-width="1" stroke="rgba(0,0,0,0)" stroke-linejoin="miter" stroke-linecap="square"/><path d=" M 66.59890459448552 134.23014696801545 L 66.34060506240472 134.37882220791474 L 66.59910426335634 135.77740954785716 L 65.49190659985352 134.8673265675839 L 65.27050700092713 134.99476248749758 L 65.49671876036864 136.41193423242743 L 64.42180853837593 135.48326684716673 L 64.16350900629512 135.63194208706605 L 65.44469202165021 136.66293435595594 L 65.73989148688541 136.49301979607102 L 65.51925668046692 135.17088419049838 L 66.55169001628222 136.0257547563875 L 66.84688948151742 135.85584019650256 L 66.59890459448552 134.23014696801545 Z  M 69.18189991529353 132.74339456902237 L 68.92360038321273 132.89206980892166 L 69.18209958416433 134.29065714886409 L 68.07490192066153 133.3805741685908 L 67.85350232173512 133.5080100885045 L 68.07971408117663 134.92518183343435 L 67.00480385918392 133.99651444817366 L 66.74650432710312 134.14518968807297 L 68.02768734245822 135.17618195696286 L 68.32288680769342 135.00626739707795 L 68.10225200127493 133.6841317915053 L 69.13468533709022 134.53900235739442 L 69.42988480232542 134.36908779750948 L 69.18189991529353 132.74339456902237 Z  M 71.76489523610152 131.2566421700293 L 71.50659570402073 131.4053174099286 L 71.76509490497234 132.803904749871 L 70.65789724146953 131.89382176959776 L 70.43649764254313 132.02125768951146 L 70.66270940198464 133.43842943444128 L 69.58779917999193 132.5097620491806 L 69.32949964791112 132.6584372890799 L 70.61068266326622 133.68942955796982 L 70.90588212850142 133.51951499808487 L 70.68524732208293 132.19737939251226 L 71.71768065789823 133.05224995840135 L 72.01288012313343 132.88233539851643 L 71.76489523610152 131.2566421700293 Z  M 72.97227838514783 132.33011307889043 L 72.75087878622142 132.45754899880413 L 72.62344812768917 132.23615854068936 L 72.84484772661557 132.10872262077567 L 72.97227838514783 132.33011307889043 Z  M 74.09387780940331 131.71830113598094 Q 73.93474684767497 131.8098957034189 73.81695762640095 131.8492949909032 Q 73.69916840512693 131.88869427838745 73.61801769733435 131.90239942685375 Q 73.53686698954176 131.91610457532002 73.47141118959624 131.88239843623188 Q 73.40595538965071 131.8486922971437 73.37140231097501 131.82866827051728 L 73.48887744930943 132.0327625990918 L 73.26747785038303 132.1601985190055 L 72.24803258212503 130.38907485408748 L 72.46943218105143 130.2616389341738 L 72.79663694488684 130.83010505839553 Q 72.79768981445386 130.79726200329506 72.81659938025184 130.7487679315181 Q 72.83550894604984 130.70027385974112 72.88869705739751 130.63665460888478 Q 72.94188516874516 130.57303535802842 73.03868065771276 130.49582925883226 Q 73.13547614668035 130.41862315963607 73.29345398549762 130.32769232094765 Q 73.51485358442402 130.20025640103398 73.68861939355722 130.14475593237196 Q 73.8623852026904 130.08925546370995 74.00570662147726 130.11421751993538 Q 74.14902804026411 130.13917957616079 74.2708316191013 130.2494442317429 Q 74.3926351979385 130.35970888732498 74.51011033627293 130.56380321589953 Q 74.62559437056778 130.76443831856602 74.65810135479697 130.92226367085726 Q 74.69060833902617 131.0800890231485 74.63887770605938 131.21425135869305 Q 74.58714707309258 131.3484136942376 74.45121224071114 131.46963945515242 Q 74.31527740832972 131.59086521606724 74.09387780940331 131.71830113598094 Z  M 73.99432260742499 131.5453398405788 Q 74.1234723734654 131.47100222062915 74.21280598129235 131.40883680042202 Q 74.3021395891193 131.34667138021487 74.35592097081319 131.28808348604224 Q 74.40970235250707 131.2294955918696 74.42939977276151 131.1690348115748 Q 74.44909719301597 131.10857403127994 74.43872987312909 131.038554093181 Q 74.42836255324221 130.96853415508207 74.3897306085809 130.88408118467365 Q 74.3510986639196 130.79962821426523 74.28871073734652 130.69123913581322 Q 74.22632281077344 130.5828500573612 74.17236841759491 130.50644902304563 Q 74.11841402441637 130.43004798873002 74.06307491099756 130.38591347186355 Q 74.00773579757876 130.34177895499707 73.94522964047363 130.327866378269 Q 73.8827234833685 130.3139538015409 73.80471700252656 130.33045444716566 Q 73.72671052168462 130.34695509279047 73.62808509500636 130.39297745876004 Q 73.52945966832809 130.43899982472965 73.40030990228769 130.5133374446793 Q 73.28961010282448 130.57705540463616 73.2061125405532 130.6320238997145 Q 73.12261497828193 130.68699239479284 73.06750619389501 130.7432741383601 Q 73.0123974095081 130.7995558819274 72.98676009491629 130.86036542661506 Q 72.9611227803245 130.92117497130275 72.96547977487373 130.99542195517554 Q 72.96983676942295 131.06966893904837 73.00568975558824 131.16262939206658 Q 73.04154274175352 131.2555898450848 73.1099039804453 131.37435660126096 Q 73.17760151779055 131.49197028213442 73.23898077889076 131.56793536095896 Q 73.30036003999098 131.6439004397835 73.36170947874744 131.6838079108761 Q 73.4230589175039 131.72371538196873 73.48818646221376 131.73151381779056 Q 73.55331400692363 131.7393122536124 73.62899753305274 131.71877584442825 Q 73.70468105918185 131.6982394352441 73.79415193357183 131.65364861788987 Q 73.8836228079618 131.60905780053565 73.99432260742499 131.5453398405788 Z  M 74.45859035637274 129.70617181107937 L 74.67998995529913 129.57873589116568 L 75.44457390649262 130.9070786398542 L 75.22317430756623 131.0345145597679 L 74.45859035637274 129.70617181107937 Z  M 74.55255929676689 129.35734543305094 L 74.33115969784049 129.48478135296463 L 74.20372903930823 129.26339089484986 L 74.42512863823464 129.13595497493617 L 74.55255929676689 129.35734543305094 Z  M 75.3890717185133 130.04252878321796 Q 75.2715965801789 129.83843445464342 75.23842589460317 129.6794560270495 Q 75.20525520902746 129.5204775994556 75.25698584199425 129.38631526391103 Q 75.30871647496105 129.25215292836648 75.44498315801573 129.131503705103 Q 75.58124984107043 129.01085448183952 75.80264943999683 128.88341856192582 Q 76.02404903892322 128.75598264201213 76.19681929603664 128.6987525603961 Q 76.36958955315004 128.64152247878005 76.51158356924385 128.66417838440012 Q 76.65357758533766 128.6868342900202 76.77438561215507 128.79536933264828 Q 76.89519363897249 128.90390437527634 77.01266877730691 129.10799870385088 Q 77.13014391564133 129.31209303242542 77.16397830256356 129.47222453532203 Q 77.1978126894858 129.6323560382186 77.14674575786553 129.76767144906583 Q 77.09567882624526 129.90298685991309 76.96007584453709 130.02478915847925 Q 76.82447286282891 130.14659145704542 76.60307326390252 130.2740273769591 Q 76.38167366497612 130.4014632968728 76.2082397065162 130.45754030318616 Q 76.03480574805626 130.51361730949952 75.89214803061593 130.48980832857677 Q 75.7494903131756 130.46599934765402 75.62801858501166 130.35631122972325 Q 75.50654685684772 130.2466231117925 75.3890717185133 130.04252878321796 Z  M 75.6104713174397 129.91509286330427 Q 75.67418664670583 130.02578809236164 75.72938130268642 130.10301033760513 Q 75.78457595866702 130.18023258284865 75.84091062410562 130.22609671266915 Q 75.8972452895442 130.27196084248962 75.95884303452054 130.28562874594115 Q 76.02044077949687 130.2992966493927 76.09877911101206 130.28337254141925 Q 76.17711744252726 130.2674484334458 76.27574286920553 130.22142606747622 Q 76.3743682958838 130.1754037015066 76.5035180619242 130.10106608155695 Q 76.6142178613874 130.0373481216001 76.69829198511421 129.98204776214698 Q 76.78236610884102 129.92674740269385 76.8368983317724 129.87079752350135 Q 76.89143055470379 129.81484764430886 76.91797628142439 129.75428277289777 Q 76.94452200814499 129.69371790148665 76.93892475079369 129.61864970668591 Q 76.9333274934424 129.5435815118852 76.89714265660388 129.45004452121566 Q 76.86095781976533 129.35650753054608 76.7912691783805 129.23543462376458 Q 76.72290793968872 129.11666786758843 76.66152867858851 129.0407027887639 Q 76.6001494174883 128.96473770993936 76.53937654018738 128.92449837447197 Q 76.47860366288646 128.88425903900458 76.41356325806757 128.8779455428602 Q 76.34852285324868 128.8716320467158 76.27374773924838 128.89241312917653 Q 76.19897262524808 128.91319421163726 76.10925704007582 128.9586934310176 Q 76.01954145490356 129.00419265039793 75.90884165544037 129.06791061035477 Q 75.79814185597716 129.13162857031162 75.7137358815771 129.1863523921134 Q 75.62932990717702 129.2410762139152 75.57380213222585 129.29529648015367 Q 75.51827435727469 129.34951674639214 75.49106492920757 129.40892854250058 Q 75.46385550114044 129.468340338609 75.46812535579869 129.54110238280435 Q 75.47239521045694 129.61386442699973 75.50725264460243 129.7050952670639 Q 75.54211007874792 129.79632610712812 75.6104713174397 129.91509286330427 Z  M 77.24070538969853 128.992093536964 Q 77.16106122811587 128.85372450064227 77.11383817916874 128.73967682780102 Q 77.0666151302216 128.62562915495977 77.05665368744587 128.52697630751618 Q 77.04669224467017 128.42832346007256 77.07587966332378 128.34167650319873 Q 77.10506708197738 128.2550295463249 77.17700359279414 128.1706407310101 Q 77.24894010361092 128.08625191569533 77.36551296184875 128.00073230711172 Q 77.48208582008658 127.9152126985281 77.64813551928138 127.81963575859282 Q 77.86953511820778 127.69219983867913 78.02811934082435 127.63699474334787 Q 78.18670356344091 127.58178964801662 78.30191792834465 127.58992533022902 Q 78.41713229324837 127.5980610124414 78.49886548507436 127.66538071750372 Q 78.58059867690037 127.73270042256605 78.64895991559214 127.8514671787422 L 78.42756031666575 127.97890309865589 Q 78.40300336684443 127.93623931245669 78.37945867793357 127.90066836027 Q 78.35591398902271 127.8650974080833 78.3242437176247 127.84341405958298 Q 78.29257344622668 127.82173071108265 78.24783325002396 127.81601334361557 Q 78.20309305382122 127.81029597614847 78.13614508941617 127.82733935938845 Q 78.0691971250111 127.84438274262844 77.97633731288822 127.88708646485028 Q 77.88347750076532 127.92979018707213 77.75432773472492 128.00412780702177 Q 77.60672800210732 128.08908508696425 77.51180305950696 128.15753903027405 Q 77.41687811690659 128.22599297358383 77.36475598857902 128.28746355601317 Q 77.31263386025145 128.3489341384425 77.29978474646315 128.40929082762108 Q 77.28693563267483 128.46964751679963 77.30397697924589 128.53659348442739 Q 77.32101832581694 128.60353945205514 77.3629353594295 128.68303135686 Q 77.40485239304206 128.76252326166482 77.463258111536 128.86399388830077 Q 77.5203364273369 128.96315836433132 77.56735537415832 129.03817855008575 Q 77.61437432097972 129.11319873584014 77.66337125838763 129.16098376082914 Q 77.71236819579552 129.20876878581817 77.7706808518206 129.22739775487324 Q 77.82899350784567 129.24602672392834 77.90865924205391 129.23240876656027 Q 77.98832497626215 129.21879080919217 78.09519654309992 129.17109222133064 Q 78.20206810993767 129.1233936334691 78.34966784255528 129.03843635352663 Q 78.47881760859568 128.96409873357698 78.56172190052074 128.90409888181492 Q 78.6446261924458 128.84409903005286 78.69232681780171 128.79361646303514 Q 78.74002744315763 128.74313389601738 78.75656033213318 128.69984556312056 Q 78.77309322110871 128.6565572302237 78.76859176912126 128.6153979747279 Q 78.76409031713382 128.5742387192321 78.74349886650096 128.53313016379053 Q 78.7229074158681 128.49202160834892 78.69635936200721 128.4458985962417 L 78.91775896093361 128.318462676328 Q 78.98744760231844 128.43953558310952 79.00626516449054 128.54690678640335 Q 79.02508272666265 128.65427798969722 78.97491109371809 128.75914368714754 Q 78.92473946077354 128.8640093845979 78.79768105211676 128.9739855568065 Q 78.67062264345999 129.0839617290151 78.4492230445336 129.2113976489288 Q 78.2831733453388 129.30697458886405 78.15067165478443 129.36482039018335 Q 78.01816996423007 129.42266619150263 77.90939802868132 129.4430593275186 Q 77.80062609313256 129.4634524635346 77.71137370261872 129.4457461055158 Q 77.62212131210485 129.428039747497 77.5431467744466 129.37218050438133 Q 77.46417223678836 129.3163212612657 77.39093349134173 129.22108576667034 Q 77.3176947458951 129.125850272075 77.24070538969853 128.992093536964 Z  M 79.04331822370999 127.9391723758925 Q 78.92584308537556 127.73507804731796 78.89267239979985 127.57609961972405 Q 78.85950171422414 127.41712119213012 78.91123234719093 127.28295885658558 Q 78.96296298015773 127.14879652104104 79.09922966321241 127.02814729777754 Q 79.2354963462671 126.90749807451405 79.45689594519351 126.78006215460036 Q 79.6782955441199 126.65262623468666 79.85106580123332 126.59539615307062 Q 80.02383605834672 126.53816607145458 80.16583007444052 126.56082197707465 Q 80.30782409053434 126.58347788269472 80.42863211735175 126.6920129253228 Q 80.54944014416917 126.80054796795088 80.6669152825036 127.00464229652542 Q 80.78439042083801 127.20873662509996 80.81822480776025 127.36886812799655 Q 80.85205919468248 127.52899963089314 80.80099226306221 127.66431504174038 Q 80.74992533144194 127.7996304525876 80.61432234973377 127.92143275115377 Q 80.4787193680256 128.04323504971995 80.2573197690992 128.17067096963365 Q 80.0359201701728 128.29810688954734 79.86248621171286 128.3541838958607 Q 79.68905225325294 128.41026090217406 79.54639453581261 128.3864519212513 Q 79.40373681837228 128.36264294032856 79.28226509020834 128.25295482239778 Q 79.1607933620444 128.14326670446704 79.04331822370999 127.9391723758925 Z  M 79.26471782263638 127.8117364559788 Q 79.32843315190252 127.92243168503617 79.3836278078831 127.99965393027968 Q 79.4388224638637 128.07687617552318 79.4951571293023 128.12274030534365 Q 79.55149179474088 128.16860443516416 79.61308953971722 128.1822723386157 Q 79.67468728469356 128.19594024206722 79.75302561620875 128.1800161340938 Q 79.83136394772394 128.16409202612033 79.92998937440221 128.11806966015075 Q 80.02861480108048 128.07204729418115 80.15776456712088 127.99770967423149 Q 80.26846436658408 127.93399171427464 80.35253849031089 127.87869135482151 Q 80.4366126140377 127.8233909953684 80.49114483696908 127.7674411161759 Q 80.54567705990047 127.71149123698339 80.57222278662107 127.65092636557229 Q 80.59876851334167 127.59036149416119 80.59317125599037 127.51529329936047 Q 80.58757399863909 127.44022510455974 80.55138916180054 127.34668811389018 Q 80.51520432496201 127.25315112322062 80.44551568357718 127.13207821643911 Q 80.3771544448854 127.01331146026297 80.31577518378519 126.93734638143843 Q 80.25439592268498 126.86138130261388 80.19362304538404 126.8211419671465 Q 80.13285016808312 126.78090263167911 80.06780976326425 126.77458913553473 Q 80.00276935844536 126.76827563939034 79.92799424444506 126.78905672185107 Q 79.85321913044476 126.8098378043118 79.7635035452725 126.85533702369213 Q 79.67378796010024 126.90083624307246 79.56308816063705 126.96455420302931 Q 79.45238836117385 127.02827216298616 79.36798238677378 127.08299598478794 Q 79.2835764123737 127.13771980658973 79.22804863742253 127.1919400728282 Q 79.17252086247137 127.24616033906669 79.14531143440425 127.30557213517511 Q 79.11810200633712 127.36498393128355 79.12237186099537 127.43774597547889 Q 79.12664171565362 127.51050801967425 79.16149914979911 127.60173885973845 Q 79.1963565839446 127.69296969980266 79.26471782263638 127.8117364559788 Z  M 82.64121399451172 126.76474751390967 L 82.21644513273755 126.02677932019382 Q 82.14542908865968 125.90340026280695 82.0781970731131 125.82926888805271 Q 82.01096505756652 125.75513751329846 81.92574859724144 125.73510810465625 Q 81.84053213691634 125.71507869601402 81.72578329381129 125.75042531992085 Q 81.61103445070626 125.78577194382767 81.44498475151144 125.88134888376294 Q 81.26509757738376 125.9848905686928 81.1656269787018 126.07745231123475 Q 81.06615638001983 126.17001405377668 81.0283038306425 126.25627575521366 Q 80.99045128126515 126.34253745665065 81.00481751812184 126.42483906762415 Q 81.01918375497854 126.50714067859766 81.06697025192813 126.5901621003907 L 81.5342159998797 127.40192711347812 L 81.31281640095331 127.52936303339182 L 80.54823244975981 126.2010202847033 L 80.76963204868622 126.07358436478961 L 80.89706270721847 126.29497482290436 Q 80.88875692237146 126.22453582933244 80.91016731810184 126.15771623485479 Q 80.93157771383224 126.09089664037714 80.97148820281186 126.02954704908215 Q 81.01139869179148 125.96819745778714 81.06683932685166 125.91249225187121 Q 81.12227996191184 125.85678704595529 81.18236650639767 125.80915336715812 Q 81.24245305088351 125.76151968836095 81.30215402258646 125.72255097435196 Q 81.36185499428942 125.68358226034297 81.4125924023767 125.65437819536274 Q 81.56019213499431 125.56942091542028 81.6774752258131 125.52647521092976 Q 81.79475831663189 125.48352950643924 81.88970948613841 125.47646433647634 Q 81.98466065564494 125.46939916651345 82.06016271111687 125.4965552092043 Q 82.13566476658883 125.52371125189516 82.20061084064153 125.57920213959203 Q 82.26555691469423 125.63469302728889 82.32307452538765 125.71595103609178 Q 82.38059213608108 125.79720904489466 82.43899785457502 125.89867967153059 L 82.86261359343811 126.63731159399597 L 82.64121399451172 126.76474751390967 Z  M 83.94846620745028 126.04607524232256 Q 83.72706660852387 126.17351116223625 83.55396450073721 126.23016470620095 Q 83.38086239295053 126.28681825016565 83.23886837685673 126.26416234454558 Q 83.09687436076292 126.24150643892551 82.97673003529204 126.13412447160012 Q 82.85658570982113 126.02674250427472 82.74110167552628 125.82610740160823 Q 82.6216354331523 125.61855384712564 82.58713734488354 125.45726926892637 Q 82.55263925661478 125.2959846907271 82.60370618823505 125.16066927987985 Q 82.65477311985532 125.02535386903263 82.79070795223676 124.9041281081178 Q 82.92664278461818 124.78290234720296 83.14804238354458 124.65546642728927 Q 83.30486709945079 124.5651993173504 83.420246226121 124.52027932662929 Q 83.53562535279121 124.4753593359082 83.61702077136606 124.46074578541578 Q 83.69841618994091 124.44613223492338 83.74984712171849 124.45413885297778 Q 83.80127805349608 124.46214547103217 83.83135950252809 124.47706784989477 L 83.5048184400392 123.90975480097572 L 83.7262180389656 123.78231888106203 L 84.7456633072236 125.55344254598005 L 84.52426370829718 125.68087846589374 L 84.41077077804191 125.48370258913528 Q 84.41077077804191 125.48370258913528 84.39325185506206 125.58128686136652 Q 84.37203244800432 125.65643955625757 84.32981571320255 125.71911660505167 Q 84.28759897840078 125.78179365384577 84.19644495087863 125.86880089311472 Q 84.10529092335648 125.9558081323837 83.94846620745028 126.04607524232256 Z  M 83.84891100547196 125.87311394692041 Q 83.95961080493515 125.80939598696357 84.04310836720643 125.75442749188522 Q 84.1266059294777 125.69945899680687 84.18237841521116 125.64433032854228 Q 84.23815090094459 125.58920166027768 84.26412006620966 125.52896865324135 Q 84.29008923147471 125.46873564620502 84.286395938272 125.39564173763489 Q 84.28270264506929 125.32254782906475 84.2478452109238 125.23131698900055 Q 84.2129877767783 125.14008614893635 84.14529023943305 125.02247246806289 Q 84.07493789670171 124.9002464859787 84.01223123290845 124.8219752565488 Q 83.94952456911518 124.7437040271189 83.88717957833894 124.70206694307225 Q 83.82483458756269 124.66042985902564 83.76003889352609 124.65320796085513 Q 83.69524319948948 124.64598606268463 83.61922782268712 124.66594593421745 Q 83.54321244588476 124.68590580575027 83.45407342216804 124.73107316075583 Q 83.36493439845133 124.77624051576139 83.25423459898812 124.83995847571823 Q 83.12508483294772 124.9142960956679 83.03575122512076 124.97646151587502 Q 82.9464176172938 125.03862693608215 82.89263623559994 125.09721483025479 Q 82.83885485390606 125.15580272442742 82.81915743365161 125.21626350472226 Q 82.79946001339715 125.27672428501708 82.8101591839573 125.34732076076737 Q 82.82085835451744 125.41791723651767 82.86015400052526 125.50352328222874 Q 82.89944964653309 125.58912932793983 82.96250127445268 125.69867148169453 Q 83.02488920102576 125.80706056014654 83.07851174353104 125.88288505681079 Q 83.13213428603632 125.95870955347505 83.18747339945511 126.00284407034152 Q 83.24281251287394 126.046978587208 83.30498681930581 126.06031462628475 Q 83.36716112573768 126.0736506653615 83.44483575590635 126.05657348208538 Q 83.52251038607503 126.03949629880925 83.6211358127533 125.99347393283966 Q 83.71976123943156 125.94745156687007 83.84891100547196 125.87311394692041 Z  M 84.49883154310277 123.92708558874337 L 84.92360040487694 124.66505378245921 Q 84.9946164489548 124.78843283984608 85.06184846450138 124.86256421460033 Q 85.12908048004796 124.93669558935457 85.21429694037306 124.95672499799679 Q 85.29951340069815 124.976754406639 85.4142622438032 124.94140778273218 Q 85.52901108690824 124.90606115882537 85.69506078610303 124.8104842188901 Q 85.87494796023074 124.70694253396022 85.97441855891269 124.61438079141828 Q 86.07388915759464 124.52181904887635 86.11174170697198 124.43555734743937 Q 86.14959425634933 124.34929564600239 86.13522801949264 124.26699403502887 Q 86.12086178263594 124.18469242405537 86.07307528568636 124.10167100226234 L 85.60582953773476 123.28990598917491 L 85.82722913666117 123.16247006926122 L 86.59181308785466 124.49081281794973 L 86.37041348892826 124.61824873786342 L 86.24298283039602 124.39685827974867 Q 86.24741385138316 124.44189581662549 86.23424959581226 124.50703918921118 Q 86.22108534024136 124.5721825617969 86.16621767119912 124.65288706895302 Q 86.11135000215688 124.73359157610913 86.00545008757302 124.82831888709615 Q 85.89955017298918 124.92304619808316 85.72081612177256 125.02592415426348 Q 85.57206326624387 125.1115451629555 85.45511202609835 125.15506740509736 Q 85.33816078595282 125.19858964723922 85.24354146711956 125.20623135485346 Q 85.14892214828629 125.21387306246768 85.07408379416087 125.18787009507952 Q 84.99924544003545 125.16186712769134 84.93553962878481 125.10719745092237 Q 84.87183381753417 125.05252777415342 84.81531175886053 124.97299937830456 Q 84.75878970018688 124.8934709824557 84.70104768303946 124.79315343112245 L 84.27743194417637 124.05452150865706 L 84.49883154310277 123.92708558874337 Z  M 86.46914804703177 123.68027235431153 Q 86.3895038854491 123.5419033179898 86.34228083650197 123.42785564514855 Q 86.29505778755484 123.31380797230729 86.28509634477912 123.2151551248637 Q 86.2751349020034 123.1165022774201 86.30432232065701 123.02985532054626 Q 86.33350973931061 122.94320836367243 86.40544625012738 122.85881954835764 Q 86.47738276094415 122.77443073304286 86.59395561918198 122.68891112445924 Q 86.71052847741981 122.60339151587561 86.87657817661461 122.50781457594034 Q 87.09797777554101 122.38037865602666 87.2565619981576 122.3251735606954 Q 87.41514622077416 122.26996846536414 87.53036058567788 122.27810414757654 Q 87.6455749505816 122.28623982978894 87.72730814240761 122.35355953485126 Q 87.8090413342336 122.42087923991357 87.87740257292538 122.53964599608972 L 87.65600297399898 122.66708191600341 Q 87.63144602417766 122.62441812980421 87.6079013352668 122.58884717761752 Q 87.58435664635594 122.55327622543084 87.55268637495793 122.5315928769305 Q 87.52101610355993 122.50990952843019 87.47627590735719 122.50419216096309 Q 87.43153571115447 122.49847479349599 87.36458774674941 122.51551817673598 Q 87.29763978234435 122.53256155997596 87.20477997022145 122.5752652821978 Q 87.11192015809856 122.61796900441965 86.98277039205816 122.69230662436931 Q 86.83517065944056 122.77726390431177 86.74024571684019 122.84571784762156 Q 86.64532077423983 122.91417179093136 86.59319864591225 122.9756423733607 Q 86.54107651758468 123.03711295579004 86.52822740379638 123.0974696449686 Q 86.51537829000807 123.15782633414716 86.53241963657912 123.22477230177492 Q 86.54946098315018 123.29171826940266 86.59137801676273 123.37121017420752 Q 86.6332950503753 123.45070207901236 86.69170076886924 123.55217270564829 Q 86.74877908467015 123.65133718167885 86.79579803149156 123.72635736743327 Q 86.84281697831297 123.80137755318768 86.89181391572086 123.84916257817667 Q 86.94081085312875 123.89694760316567 86.99912350915383 123.91557657222077 Q 87.0574361651789 123.93420554127586 87.13710189938715 123.92058758390777 Q 87.2167676335954 123.9069696265397 87.32363920043315 123.85927103867817 Q 87.4305107672709 123.81157245081663 87.57811049988851 123.72661517087417 Q 87.70726026592891 123.65227755092451 87.79016455785397 123.59227769916245 Q 87.87306884977903 123.5322778474004 87.92076947513496 123.48179528038266 Q 87.96847010049086 123.43131271336492 87.98500298946641 123.38802438046807 Q 88.00153587844194 123.34473604757123 87.9970344264545 123.30357679207543 Q 87.99253297446705 123.26241753657965 87.9719415238342 123.22130898113805 Q 87.95135007320133 123.18020042569646 87.92480201934045 123.13407741358921 L 88.14620161826684 123.00664149367552 Q 88.21589025965167 123.12771440045702 88.23470782182378 123.23508560375087 Q 88.25352538399588 123.34245680704473 88.20335375105132 123.44732250449508 Q 88.15318211810677 123.55218820194543 88.02612370945 123.66216437415402 Q 87.89906530079324 123.77214054636262 87.67766570186683 123.89957646627632 Q 87.51161600267203 123.99515340621159 87.37911431211766 124.05299920753086 Q 87.2466126215633 124.11084500885015 87.13784068601456 124.13123814486613 Q 87.02906875046581 124.15163128088211 86.93981635995195 124.13392492286332 Q 86.85056396943808 124.11621856484453 86.77158943177984 124.06035932172887 Q 86.69261489412159 124.0045000786132 86.61937614867496 123.90926458401786 Q 86.54613740322833 123.81402908942252 86.46914804703177 123.68027235431153 Z  M 89.64794497155121 121.9457570955509 Q 89.74550906948997 122.115259165045 89.7832087022566 122.2447665723483 Q 89.82090833502323 122.37427397965159 89.7949152699923 122.47980609685936 Q 89.76892220496137 122.58533821406715 89.67942743080552 122.67522814159281 Q 89.58993265664967 122.76511806911849 89.43426106365455 122.8547214503078 Q 89.28320196230372 122.94166991649891 89.1672999962876 122.97768026915529 Q 89.05139803027149 123.01369062181166 88.9561186055293 122.99484808850825 Q 88.86083918078711 122.97600555520484 88.78006812319954 122.89968902097957 Q 88.69929706561197 122.8233724867543 88.61965290402932 122.68500345043257 L 88.23603352573951 122.01852592548296 L 87.96274339581475 122.17582963912642 L 87.85787858306425 121.99364374130282 L 88.13116871298902 121.83634002765936 L 87.92210278883455 121.47312130731484 L 88.14350238776095 121.34568538740115 L 88.35256831191542 121.70890410774567 L 89.18627617662264 121.22902822182067 L 89.29114098937315 121.41121411964427 L 88.45743312466593 121.89109000556927 L 88.8410525029557 122.5575675305189 Q 88.90476783222184 122.66826275957627 88.95600058445157 122.7185986084472 Q 89.00723333668131 122.76893445731812 89.06006210215224 122.77536894459685 Q 89.11289086762318 122.78180343187557 89.1760846258407 122.7515699737349 Q 89.23927838405822 122.72133651559423 89.32691572529993 122.67089313062839 Q 89.39610309996442 122.63106940565537 89.44954903554745 122.59723613944635 Q 89.50299497113046 122.56340287323735 89.53696197033514 122.52773321195015 Q 89.57092896953984 122.49206355066296 89.58548746336648 122.45067921291655 Q 89.60004595719312 122.40929487517015 89.59203500980043 122.35403714274756 Q 89.58402406240772 122.29877941032497 89.55260569266719 122.2255253285686 Q 89.52118732292664 122.15227124681222 89.46344530577922 122.05195369547897 L 89.64794497155121 121.9457570955509 Z  M 89.85845800668243 121.71406043385856 Q 89.740982868348 121.50996610528402 89.70781218277229 121.35098767769011 Q 89.67464149719657 121.19200925009619 89.72637213016337 121.05784691455165 Q 89.77810276313016 120.9236845790071 89.91436944618485 120.8030353557436 Q 90.05063612923955 120.68238613248012 90.27203572816595 120.55495021256642 Q 90.49343532709234 120.42751429265273 90.66620558420576 120.37028421103669 Q 90.83897584131915 120.31305412942066 90.98096985741296 120.33571003504073 Q 91.12296387350678 120.35836594066079 91.24377190032419 120.46690098328887 Q 91.3645799271416 120.57543602591696 91.48205506547603 120.77953035449148 Q 91.59953020381045 120.98362468306603 91.63336459073268 121.14375618596262 Q 91.66719897765492 121.30388768885922 91.61613204603465 121.43920309970645 Q 91.56506511441438 121.57451851055367 91.4294621327062 121.69632080911984 Q 91.29385915099803 121.81812310768602 91.07245955207163 121.94555902759971 Q 90.85105995314524 122.07299494751341 90.6776259946853 122.12907195382675 Q 90.50419203622538 122.18514896014011 90.36153431878505 122.16133997921736 Q 90.21887660134472 122.13753099829461 90.09740487318078 122.02784288036386 Q 89.97593314501684 121.91815476243309 89.85845800668243 121.71406043385856 Z  M 90.07985760560882 121.58662451394487 Q 90.14357293487495 121.69731974300224 90.19876759085554 121.77454198824574 Q 90.25396224683614 121.85176423348923 90.31029691227474 121.89762836330974 Q 90.36663157771332 121.94349249313024 90.42822932268966 121.95716039658176 Q 90.489827067666 121.97082830003329 90.56816539918118 121.95490419205984 Q 90.64650373069638 121.93898008408641 90.74512915737465 121.8929577181168 Q 90.84375458405292 121.84693535214721 90.97290435009332 121.77259773219757 Q 91.08360414955652 121.70887977224072 91.16767827328333 121.6535794127876 Q 91.25175239701014 121.59827905333447 91.30628461994152 121.54232917414197 Q 91.36081684287291 121.48637929494947 91.3873625695935 121.42581442353836 Q 91.4139082963141 121.36524955212725 91.40831103896281 121.29018135732653 Q 91.40271378161152 121.21511316252581 91.36652894477298 121.12157617185625 Q 91.33034410793445 121.02803918118668 91.26065546654962 120.90696627440518 Q 91.19229422785784 120.78819951822904 91.13091496675763 120.7122344394045 Q 91.06953570565742 120.63626936057994 91.00876282835648 120.59603002511257 Q 90.94798995105556 120.55579068964519 90.88294954623669 120.54947719350079 Q 90.8179091414178 120.5431636973564 90.7431340274175 120.56394477981713 Q 90.6683589134172 120.58472586227786 90.57864332824494 120.6302250816582 Q 90.48892774307268 120.67572430103854 90.37822794360949 120.73944226099539 Q 90.26752814414628 120.80316022095222 90.18312216974621 120.85788404275401 Q 90.09871619534614 120.9126078645558 90.04318842039497 120.96682813079427 Q 89.98766064544381 121.02104839703276 89.96045121737669 121.08046019314118 Q 89.93324178930956 121.13987198924961 89.93751164396781 121.21263403344497 Q 89.94178149862606 121.28539607764031 89.97663893277155 121.37662691770453 Q 90.01149636691704 121.46785775776873 90.07985760560882 121.58662451394487 Z  M 92.75615816546446 119.74989266162068 Q 92.70837166851487 119.66687123982764 92.66473806398878 119.61906931482058 Q 92.62110445946269 119.5712673898135 92.55721717755488 119.56429016491957 Q 92.49332989564707 119.55731294002562 92.39748342746483 119.5948278233854 Q 92.30163695928259 119.63234270674519 92.14942473502069 119.71995490168585 Q 92.00067187949202 119.80557591037785 91.92220220399169 119.88528213340177 Q 91.84373252849136 119.96498835642568 91.8179006297893 120.04279596631493 Q 91.79206873108727 120.12060357620416 91.8108731798063 120.19728039282457 Q 91.82967762852532 120.27395720944497 91.87613672278187 120.35467248063264 L 92.34935578285214 121.17681517144419 L 92.12795618392575 121.30425109135788 L 91.36337223273225 119.97590834266937 L 91.58477183165866 119.84847242275568 L 91.7062291780722 120.0594852031463 Q 91.69718566544077 120.0171025812677 91.7034311835452 119.95594158117929 Q 91.70967670164966 119.89478058109088 91.75152816799681 119.82080055252848 Q 91.79337963434396 119.74682052396606 91.87967645943954 119.66337660172142 Q 91.96597328453512 119.57993267947677 92.11703238588595 119.49298421328567 Q 92.2900008225472 119.39342490085309 92.41598246187108 119.36159089391639 Q 92.54196410119496 119.32975688697968 92.63668367337229 119.35429450571635 Q 92.73140324554961 119.37883212445303 92.8031773217402 119.4541868655901 Q 92.87495139793077 119.52954160672718 92.94065783123645 119.6436960616926 L 92.75615816546446 119.74989266162068 Z  M 93.82535310902816 120.32724237201958 L 93.60395351010175 120.45467829193328 L 93.4765228515695 120.23328783381852 L 93.6979224504959 120.10585191390483 L 93.82535310902816 120.32724237201958 Z  M 93.69605105474002 119.50517115535456 Q 93.57857591640561 119.30107682678003 93.54540523082989 119.14209839918612 Q 93.51223454525417 118.9831199715922 93.56396517822097 118.84895763604766 Q 93.61569581118776 118.71479530050311 93.75196249424246 118.59414607723961 Q 93.88822917729715 118.47349685397613 94.10962877622356 118.34606093406244 Q 94.33102837514994 118.21862501414874 94.50379863226335 118.1613949325327 Q 94.67656888937677 118.10416485091667 94.81856290547057 118.12682075653673 Q 94.96055692156438 118.1494766621568 95.0813649483818 118.25801170478488 Q 95.2021729751992 118.36654674741295 95.31964811353362 118.5706410759875 Q 95.43712325186804 118.77473540456204 95.47095763879028 118.93486690745863 Q 95.50479202571253 119.09499841035523 95.45372509409225 119.23031382120246 Q 95.40265816247198 119.36562923204968 95.2670551807638 119.48743153061585 Q 95.13145219905564 119.60923382918203 94.91005260012923 119.73666974909571 Q 94.68865300120284 119.8641056690094 94.5152190427429 119.92018267532276 Q 94.34178508428298 119.97625968163612 94.19912736684265 119.95245070071337 Q 94.05646964940232 119.92864171979062 93.93499792123839 119.81895360185987 Q 93.81352619307444 119.7092654839291 93.69605105474002 119.50517115535456 Z  M 93.91745065366644 119.37773523544088 Q 93.98116598293255 119.48843046449825 94.03636063891315 119.56565270974176 Q 94.09155529489374 119.64287495498525 94.14788996033234 119.68873908480575 Q 94.20422462577093 119.73460321462625 94.26582237074726 119.74827111807777 Q 94.32742011572358 119.76193902152929 94.40575844723878 119.74601491355585 Q 94.48409677875398 119.73009080558242 94.58272220543225 119.68406843961282 Q 94.68134763211052 119.63804607364322 94.81049739815091 119.56370845369356 Q 94.92119719761412 119.49999049373672 95.00527132134093 119.4446901342836 Q 95.08934544506775 119.38938977483048 95.14387766799913 119.33343989563798 Q 95.19840989093052 119.27749001644548 95.22495561765112 119.21692514503437 Q 95.25150134437172 119.15636027362325 95.24590408702042 119.08129207882254 Q 95.24030682966912 119.00622388402182 95.20412199283058 118.91268689335226 Q 95.16793715599206 118.8191499026827 95.09824851460723 118.69807699590119 Q 95.02988727591546 118.57931023972505 94.96850801481523 118.5033451609005 Q 94.90712875371501 118.42738008207596 94.8463558764141 118.38714074660858 Q 94.78558299911317 118.3469014111412 94.7205425942943 118.3405879149968 Q 94.65550218947541 118.33427441885242 94.5807270754751 118.35505550131315 Q 94.50595196147479 118.37583658377388 94.41623637630255 118.42133580315421 Q 94.32652079113029 118.46683502253455 94.2158209916671 118.5305529824914 Q 94.10512119220388 118.59427094244825 94.02071521780383 118.64899476425002 Q 93.93630924340374 118.7037185860518 93.88078146845257 118.75793885229028 Q 93.82525369350141 118.81215911852877 93.7980442654343 118.87157091463719 Q 93.77083483736718 118.93098271074561 93.77510469202542 119.00374475494097 Q 93.77937454668367 119.07650679913633 93.81423198082916 119.16773763920054 Q 93.84908941497466 119.25896847926474 93.91745065366644 119.37773523544088 Z  M 96.59375121352205 117.54100338311667 Q 96.54596471657246 117.45798196132365 96.50233111204638 117.41018003631658 Q 96.4586975075203 117.36237811130951 96.39481022561247 117.35540088641558 Q 96.33092294370468 117.34842366152164 96.23507647552243 117.38593854488141 Q 96.13923000734019 117.4234534282412 95.9870177830783 117.51106562318186 Q 95.83826492754962 117.59668663187387 95.75979525204929 117.67639285489778 Q 95.68132557654896 117.75609907792169 95.65549367784692 117.83390668781094 Q 95.62966177914488 117.91171429770017 95.6484662278639 117.98839111432058 Q 95.66727067658292 118.06506793094098 95.71372977083948 118.14578320212865 L 96.18694883090976 118.9679258929402 L 95.96554923198336 119.0953618128539 L 95.20096528078986 117.76701906416538 L 95.42236487971626 117.63958314425169 L 95.5438222261298 117.8505959246423 Q 95.53477871349837 117.8082133027637 95.54102423160282 117.7470523026753 Q 95.54726974970725 117.6858913025869 95.58912121605442 117.6119112740245 Q 95.63097268240158 117.53793124546208 95.71726950749715 117.45448732321744 Q 95.80356633259272 117.37104340097278 95.95462543394356 117.28409493478166 Q 96.12759387060481 117.1845356223491 96.25357550992868 117.1527016154124 Q 96.37955714925258 117.12086760847569 96.4742767214299 117.14540522721236 Q 96.56899629360723 117.16994284594904 96.64077036979779 117.24529758708611 Q 96.71254444598837 117.32065232822319 96.77825087929406 117.4348067831886 L 96.59375121352205 117.54100338311667 Z  M 97.53681497556309 116.61901418378602 Q 97.40766520952269 116.69335180373567 97.31833160169575 116.7555172239428 Q 97.22899799386877 116.81768264414993 97.17521661217489 116.87627053832256 Q 97.12143523048101 116.9348584324952 97.10173781022658 116.99531921279004 Q 97.08204038997212 117.05577999308487 97.09273956053227 117.12637646883516 Q 97.10343873109241 117.19697294458544 97.14273437710023 117.28257899029653 Q 97.18203002310806 117.36818503600762 97.24508165102765 117.4777271897623 Q 97.30746957760073 117.58611626821433 97.36109212010601 117.66194076487858 Q 97.41471466261129 117.73776526154283 97.47005377603008 117.7818997784093 Q 97.52539288944891 117.82603429527578 97.58756719588078 117.83937033435252 Q 97.64974150231264 117.85270637342927 97.72741613248132 117.83562919015316 Q 97.80509076265 117.81855200687704 97.90371618932826 117.77252964090744 Q 98.00234161600653 117.72650727493784 98.13149138204693 117.6521696549882 Q 98.24219118151012 117.58845169503135 98.3256887437814 117.533483199953 Q 98.40918630605267 117.47851470487464 98.46462694111287 117.42280949895871 Q 98.52006757617303 117.36710429304279 98.5460367414381 117.30687128600644 Q 98.57200590670315 117.24663827897011 98.56798076282718 117.17296783274864 Q 98.56395561895121 117.09929738652717 98.52843448345921 117.00691347116029 Q 98.49291334796719 116.9145295557934 98.42388840792889 116.79460972431458 Q 98.3548634678906 116.67468989283576 98.29248865477058 116.59699520105718 Q 98.23011384165059 116.51930050927862 98.16843255222086 116.47881650053468 Q 98.10675126279114 116.43833249179073 98.04195556875453 116.43111059362023 Q 97.97715987471793 116.42388869544972 97.90147634858883 116.44442510463388 Q 97.82579282245972 116.46496151381805 97.736653798743 116.51012886882361 Q 97.6475147750263 116.55529622382917 97.53681497556309 116.61901418378602 Z  M 98.92205146835502 117.14800620561887 Q 99.03355329457074 117.34172285646927 99.06340547341384 117.49493590754979 Q 99.09325765225695 117.64814895863029 99.04185886996342 117.78288783182617 Q 98.99046008766987 117.91762670502207 98.85386155394193 118.03769939063422 Q 98.71726302021398 118.15777207624637 98.49586342128757 118.28520799616007 Q 98.28830129729407 118.40467917107915 98.13642451914303 118.46753673805618 Q 97.98454774099199 118.53039430503323 97.87516582620636 118.54039286330702 Q 97.76578391142071 118.5503914215808 97.69213569342531 118.50912000194509 Q 97.61848747542993 118.46784858230936 97.5667187704012 118.37790870870023 L 97.7881183693276 118.25047278878654 Q 97.81400272184196 118.2954427255911 97.85423427518205 118.31066316879235 Q 97.89446582852214 118.32588361199359 97.96256691583828 118.30817650000405 Q 98.03066800315442 118.29046938801451 98.13406349236828 118.23939876534314 Q 98.23745898158214 118.18832814267176 98.38967120584402 118.1007159477311 Q 98.55572090503884 118.00513900779583 98.6617580861857 117.92798629966174 Q 98.76779526733256 117.85083359152765 98.81109828948271 117.76603992975005 Q 98.85440131163284 117.68124626797247 98.83195010094553 117.57289637157236 Q 98.80949889025825 117.46454647517224 98.72189031251733 117.31234053521834 Q 98.7216754240788 117.3493065449764 98.70508881299364 117.40183638031276 Q 98.68850220190848 117.45436621564912 98.63697334392711 117.52086815476216 Q 98.58544448594576 117.58737009387521 98.4899763996712 117.66688234367675 Q 98.39450831339667 117.74639459347829 98.23768359749047 117.83666170341715 Q 98.01628399856406 117.96409762333084 97.84285004010414 118.0201746296442 Q 97.6694160816442 118.07625163595756 97.52675836420389 118.05244265503481 Q 97.38410064676356 118.02863367411206 97.2626289185996 117.9189455561813 Q 97.14115719043568 117.80925743825054 97.02368205210125 117.605163109676 Q 96.90421580972728 117.39760955519343 96.8697177214585 117.23632497699414 Q 96.83521963318975 117.07504039879487 96.88628656481002 116.93972498794764 Q 96.93735349643029 116.80440957710042 97.07328832881171 116.68318381618558 Q 97.20922316119315 116.56195805527075 97.43062276011955 116.43452213535706 Q 97.58744747602574 116.34425502541819 97.70282660269596 116.29933503469708 Q 97.81820572936617 116.25441504397597 97.89960114794103 116.23980149348357 Q 97.98099656651587 116.22518794299117 98.03242749829346 116.23319456104556 Q 98.08385843007103 116.24120117909996 98.11327617775653 116.25497048265987 L 98.04226013367867 116.131591425273 L 98.26365973260506 116.00415550535931 L 98.92205146835502 117.14800620561887 Z " fill-rule="evenodd" fill="rgb(255,255,255)" stroke-width="1" stroke="rgba(0,0,0,0)" stroke-linejoin="miter" stroke-linecap="square"/></g><path d=" M 40.82833377236847 91.00197667059918 C 40.59182863877786 90.76758885251537 40.27136418276259 90.63574570484323 39.93682767129868 90.63574570484323 C 39.60229115983477 90.63574570484323 39.28088068328513 90.76758885251537 39.04449380226133 91.00197667059918 L 33.693801659907486 96.30664176947177 C 33.45729652631688 96.54102958755557 33.32426238867216 96.85780472369582 33.32426238867216 97.18911190455728 C 33.32426238867216 97.52053627932777 33.45729652631688 97.8391865180127 33.693801659907486 98.0735743360965 L 36.369147731084404 100.72496933426046 C 36.61582258541941 100.96849827724954 36.9381790825034 101.09120030001641 37.261481600121755 101.09120030001641 C 37.58395634977255 101.09120030001641 37.906312846856544 100.96849827724954 38.15298770119154 100.72496933426046 L 43.50462586407975 95.42030423538787 C 43.99702955221539 94.93324634940973 43.99702955221539 94.14230465728595 43.50462586407975 93.65337166876313 L 40.82833377236847 91.00197667059918 Z " fill="rgb(237,85,100)" stroke-width="1.1719390904190072" stroke="rgba(0,0,0,0)" stroke-linejoin="miter" stroke-linecap="butt"/><path d=" M 59.557411806542056 109.56349956638255 C 59.06500811840642 109.0764416804044 58.26680329253813 109.0764416804044 57.77357183643492 109.56349956638255 L 52.422879694081075 114.86617236880141 C 52.186374560490464 115.10056018688522 52.05334042284575 115.41921042557016 52.05334042284575 115.75063480034065 C 52.05334042284575 116.0819419812021 52.186374560490464 116.40059221988703 52.422879694081075 116.63498003797083 L 55.09822576525799 119.2863750361348 C 55.344900619593 119.52990397912387 55.66725711667699 119.65260600189075 55.990559634295344 119.65260600189075 C 56.31303438394613 119.65260600189075 56.63539088103013 119.52990397912387 56.88206573536513 119.2863750361348 L 62.23370389825334 113.98370223371592 C 62.47020903184395 113.74931441563211 62.6022971489543 113.43066417694718 62.6022971489543 113.09923980217668 C 62.6022971489543 112.76781542740619 62.47020903184395 112.44916518872125 62.23370389825334 112.21477737063745 L 59.557411806542056 109.56349956638255 Z " fill="rgb(237,85,100)" stroke-width="1.1719390904190072" stroke="rgba(0,0,0,0)" stroke-linejoin="miter" stroke-linecap="butt"/><path d=" M 67.35439479819033 64.71350776995617 C 66.86104508952032 64.22562952661474 66.06284026365202 64.22562952661474 65.56949055498202 64.71350776995617 L 60.219744433162546 70.01723531755643 C 59.72651297705934 70.5052307548069 59.72651297705934 71.29617244693068 60.219744433162546 71.78416788418116 L 62.89520875690626 74.43650043361747 C 63.130767869962504 74.67088825170127 63.452178346512135 74.8027313993734 63.78659660540925 74.8027313993734 C 64.12101486430637 74.8027313993734 64.4425435934228 74.67088825170127 64.6789304744466 74.43650043361747 L 70.02962261680045 69.13277288601721 C 70.26612775039105 68.8983850679334 70.39916188803576 68.58078957442986 70.39916188803576 68.24936519965935 C 70.39916188803576 67.91794082488886 70.26612775039105 67.60022813747626 70.02962261680045 67.36490276812013 L 67.35439479819033 64.71350776995617 Z " fill="rgb(237,85,100)" stroke-width="1.1719390904190072" stroke="rgba(0,0,0,0)" stroke-linejoin="miter" stroke-linecap="butt"/><path d=" M 88.75881890354083 85.9264256639035 L 86.08347283236391 83.27503066573954 C 85.84696769877331 83.04064284765573 85.52543896965688 82.90879969998359 85.19113896332655 82.90879969998359 C 84.85672070442945 82.90879969998359 84.53519197531301 83.04064284765573 84.2986868417224 83.27503066573954 L 78.94799469936856 88.57864101943075 C 78.45653703176728 89.06663645668122 78.45653703176728 89.85769534271405 78.94799469936856 90.34662833123687 L 81.6233407705455 92.99790613549179 C 81.87096164541485 93.24143507848086 82.1923721219645 93.36413710124774 82.51567463958284 93.36413710124774 C 82.8389771572012 93.36413710124774 83.16050588631762 93.24143507848086 83.40812676118699 92.99790613549179 L 88.75881890354083 87.69429578180058 C 88.99532403713144 87.45990796371677 89.12835817477617 87.14219527630418 89.12835817477617 86.81077090153369 C 89.12835817477617 86.4793465267632 88.99532403713144 86.16163383935059 88.75881890354083 85.9264256639035 Z " fill="rgb(237,85,100)" stroke-width="1.1719390904190072" stroke="rgba(0,0,0,0)" stroke-linejoin="miter" stroke-linecap="butt"/><path d=" M 60.4498639281462 115.75063480034063 C 60.221636474231275 115.52538810716212 59.90578386832102 115.3844038345847 59.557530059108856 115.3844038345847 C 58.86102244068452 115.3844038345847 58.29648468680375 115.94283281116935 58.29648468680375 116.63498003797082 C 58.29648468680375 116.97929574273593 58.43779650412414 117.29232067378685 58.66602395803907 117.51756736696538 L 60.4498639281462 115.75063480034063 Z " fill="rgb(218,68,83)" stroke-width="1.1719390904190072" stroke="rgba(0,0,0,0)" stroke-linejoin="miter" stroke-linecap="butt"/><path d=" M 86.97391466033255 89.46216589969764 C 86.74663322695197 89.23598165524677 86.43078062104172 89.09593493394169 86.08347283236392 89.09593493394169 C 85.38696521393959 89.09593493394169 84.82159969209124 89.65530146179869 84.82159969209124 90.34662833123687 C 84.82159969209124 90.69164719945621 84.96208374144408 91.00385177314385 85.19113896332657 91.23003601759471 L 86.97391466033255 89.46216589969764 Z " fill="rgb(218,68,83)" stroke-width="1.1719390904190072" stroke="rgba(0,0,0,0)" stroke-linejoin="miter" stroke-linecap="butt"/><path d=" M 62.00370265583648 68.24936519965935 C 62.23193010975142 68.47554944411023 62.5469549476941 68.61547897150625 62.89520875690626 68.61547897150625 C 63.590770354796234 68.61547897150625 64.15613587664457 68.0562296375583 64.15613587664457 67.36490276812013 C 64.15613587664457 67.01976670599174 64.01565182729175 66.7075621323041 63.78659660540925 66.48137788785324 L 62.00370265583648 68.24936519965935 Z " fill="rgb(218,68,83)" stroke-width="1.1719390904190072" stroke="rgba(0,0,0,0)" stroke-linejoin="miter" stroke-linecap="butt"/><path d=" M 35.47764163001462 94.53771690639331 C 35.70586908392956 94.76483870211652 36.02077566930544 94.90394787214926 36.369147731084404 94.90394787214926 C 37.06565534950874 94.90394787214926 37.63019310338951 94.34364379301994 37.63102087135708 93.65337166876313 C 37.63102087135708 93.30823560663474 37.489709054036695 92.99603103294712 37.261481600121755 92.76984678849625 L 35.47764163001462 94.53771690639331 Z " fill="rgb(218,68,83)" stroke-width="1.1719390904190072" stroke="rgba(0,0,0,0)" stroke-linejoin="miter" stroke-linecap="butt"/><path d=" M 44.94009377240793 122 C 41.86481752032929 122 38.732188773354935 120.43991468283421 35.63006918861377 117.36744196948271 C 33.95703187359383 115.70856218699461 32.743169275440046 113.96541998390538 32.02265638595627 112.18184588219668 C 31.389886901034604 110.62000265639527 31.132096305420845 109.02511074824405 31.255906742855526 107.44486807872306 C 31.470180393888615 104.71120295641168 32.82358102086085 102.46998663989436 34.0180501980602 101.28714851593446 L 34.848537974663614 100.46315814146087 L 34.848537974663614 100.46315814146087 C 40.068088020441465 95.29221129280506 68.19871812510877 67.41072558655551 70.59688017971752 65.0357910198214 C 71.99367949870363 63.650676208855174 74.32715739927534 62 77.51240853847361 62 C 80.58685702258467 62 83.7203135375266 63.55914776589345 86.82231486970096 66.63337838788058 C 88.49452441675334 68.2914378130054 89.70838701490712 70.03551756736697 90.4288999043909 71.81709937262194 C 91.06249715728012 73.37988014969568 91.31934173235952 74.97395170048362 91.19553129492485 76.5550147273679 C 90.98125764389175 79.28973459486066 89.62892129002067 81.5290758088333 88.43350609228696 82.71285148406554 C 86.77063849801141 84.36083223301274 59.08428328679405 111.80096567781051 53.02147418719889 117.8087942309345 L 53.02052816666453 117.81066933347918 C 53.01958214613016 117.81066933347918 53.018636125595805 117.81066933347918 53.018636125595805 117.81254443602384 L 51.855622131164004 118.96432617408765 C 50.45799504421033 120.3483862398725 48.124398891071834 122 44.94009377240793 122 Z " fill="rgb(67,74,84)" stroke-width="1.1719390904190072" stroke="rgba(0,0,0,0)" stroke-linejoin="miter" stroke-linecap="butt"/><path d=" M 36.58436740265186 102.27954653770128 C 36.582475361583136 102.28142164024595 36.5807015730812 102.28317954888158 36.57880953201248 102.28505465142625 L 35.80189016816734 103.05583899119483 C 35.498927092037775 103.35433187752456 33.97914510358455 104.9859054792059 33.771375343725204 107.63718328346081 C 33.56171354279713 110.3179939527943 34.78669188222967 112.9949372231294 37.413909158720905 115.59875149422234 C 40.025517096395156 118.18791652668506 42.55848707715054 119.49884759322777 44.94009377240793 119.49884759322777 C 47.26068214319894 119.49884759322777 49.0112931420366 118.24639628729696 50.07178216105687 117.19715921964482 L 50.92260937914907 116.35301149281602 C 50.94011075903478 116.33648715164111 50.95678437095292 116.32008000437524 50.973457982871054 116.30168056065567 L 51.24508412879986 116.03436125413108 C 57.3209010107425 110.01399295273961 84.98786280100543 82.59284492120663 86.65061214271418 80.94498136616846 C 86.95357521884375 80.64555092856641 88.47241118676261 79.01503207206645 88.68124521972311 76.36187916526686 C 88.89007925268362 73.68306079238708 87.66498266068429 71.00412522559827 85.03776538419305 68.40042814841436 C 82.42698521448636 65.81220066722399 79.894015233731 64.50021485549992 77.51240853847361 64.50021485549992 C 75.19182016768258 64.50021485549992 73.44014489574377 65.75278335533974 72.3797741292903 66.80366113771848 C 69.98350411575028 69.17859570445259 41.8519279905486 97.05914385942981 36.63237794477075 102.23196581063027 L 36.58436740265186 102.27954653770128 Z " fill="rgb(101,109,120)" stroke-width="1.1719390904190072" stroke="rgba(0,0,0,0)" stroke-linejoin="miter" stroke-linecap="butt"/><path d=" M 74.48975467861888 76.57060151727048 C 75.18638054960999 76.57060151727048 75.74985403038963 76.01029743814115 75.74985403038963 75.31990811997531 C 75.74985403038963 74.62963599571852 75.18626229704321 74.07026946786152 74.48975467861888 74.07026946786152 C 73.79135501912582 74.07026946786152 73.2278815383462 74.62963599571852 73.2278815383462 75.31990811997531 C 73.2278815383462 76.01029743814115 73.79312880762774 76.57060151727048 74.48975467861888 76.57060151727048 Z " fill="rgb(170,178,188)" stroke-width="1.1719390904190072" stroke="rgba(0,0,0,0)" stroke-linejoin="miter" stroke-linecap="butt"/><path d=" M 78.05554257776441 80.10540420179228 C 78.75216844875555 80.10540420179228 79.3175339706039 79.5460376739353 79.3175339706039 78.8557655496785 C 79.3175339706039 78.16537623151267 78.75216844875555 77.60600970365567 78.05554257776441 77.60600970365567 C 77.3590349593401 77.60600970365567 76.79556147856047 78.16537623151267 76.79556147856047 78.8557655496785 C 76.79556147856047 79.54592048002625 77.35915321190689 80.10540420179228 78.05554257776441 80.10540420179228 Z " fill="rgb(170,178,188)" stroke-width="1.1719390904190072" stroke="rgba(0,0,0,0)" stroke-linejoin="miter" stroke-linecap="butt"/><path d=" M 70.9220747384046 77.60600970365567 C 70.22544886741346 77.60600970365567 69.66008334556513 78.16537623151265 69.66008334556513 78.8557655496785 C 69.66008334556513 79.54603767393529 70.22544886741346 80.10540420179228 70.9220747384046 80.10540420179228 C 71.61870060939572 80.10540420179228 72.18217409017535 79.54603767393529 72.18217409017535 78.8557655496785 C 72.18217409017535 78.16537623151267 71.61870060939572 77.60600970365567 70.9220747384046 77.60600970365567 Z " fill="rgb(170,178,188)" stroke-width="1.1719390904190072" stroke="rgba(0,0,0,0)" stroke-linejoin="miter" stroke-linecap="butt"/><path d=" M 74.48975467861888 81.14092958208653 C 73.79312880762774 81.14092958208653 73.2278815383462 81.70123366121585 73.2278815383462 82.39150578547265 C 73.2278815383462 83.08189510363849 73.79312880762774 83.64126163149547 74.48786263755014 83.64126163149547 C 75.18626229704321 83.64126163149547 75.74985403038963 83.08189510363849 75.74985403038963 82.39150578547265 C 75.74985403038963 81.70123366121585 75.18638054960999 81.14092958208653 74.48975467861888 81.14092958208653 Z " fill="rgb(170,178,188)" stroke-width="1.1719390904190072" stroke="rgba(0,0,0,0)" stroke-linejoin="miter" stroke-linecap="butt"/><path d=" M 47.96381190536381 102.85813286664114 C 48.66031952378814 102.85813286664114 49.224739025102124 102.29782878751182 49.224739025102124 101.60931457189065 C 49.224739025102124 100.91728453899823 48.66031952378815 100.35873836850453 47.96381190536381 100.35873836850453 C 47.267186034372685 100.35873836850453 46.701938765091136 100.91728453899823 46.701938765091136 101.60931457189065 C 46.70182051252434 102.29782878751182 47.267186034372685 102.85813286664114 47.96381190536381 102.85813286664114 Z " fill="rgb(170,178,188)" stroke-width="1.1719390904190072" stroke="rgba(0,0,0,0)" stroke-linejoin="miter" stroke-linecap="butt"/><path d=" M 51.53054582504372 106.3938731024353 C 52.227171696034844 106.3938731024353 52.792418965316394 105.83544412585064 52.792418965316394 105.14329689904918 C 52.792418965316394 104.45478268342801 52.22705344346805 103.89447860429868 51.53054582504372 103.89447860429868 C 50.8340382066194 103.89447860429868 50.26950045273862 104.45478268342801 50.26950045273862 105.14329689904918 C 50.26950045273862 105.83556131975968 50.8340382066194 106.3938731024353 51.53054582504372 106.3938731024353 Z " fill="rgb(170,178,188)" stroke-width="1.1719390904190072" stroke="rgba(0,0,0,0)" stroke-linejoin="miter" stroke-linecap="butt"/><path d=" M 44.39601371258274 103.89447860429868 C 43.699387841591616 103.89447860429868 43.13496834027764 104.45478268342801 43.13496834027764 105.14329689904918 C 43.13496834027764 105.83544412585064 43.699387841591616 106.3938731024353 44.39601371258274 106.3938731024353 C 45.09252133100707 106.3938731024353 45.65705908488785 105.83544412585064 45.65705908488785 105.14329689904918 C 45.65705908488785 104.45478268342801 45.09252133100707 103.89447860429868 44.39601371258274 103.89447860429868 Z " fill="rgb(170,178,188)" stroke-width="1.1719390904190072" stroke="rgba(0,0,0,0)" stroke-linejoin="miter" stroke-linecap="butt"/><path d=" M 47.96381190536381 107.42834373754815 C 47.267186034372685 107.42834373754815 46.701938765091136 107.98864781667749 46.701938765091136 108.68091223738799 C 46.701938765091136 109.36942645300914 47.26730428693948 109.92973053213848 47.96381190536381 109.92973053213848 C 48.66031952378814 109.92973053213848 49.224739025102124 109.36942645300914 49.224739025102124 108.68091223738799 C 49.224739025102124 107.98876501058652 48.66031952378815 107.42834373754815 47.96381190536381 107.42834373754815 Z " fill="rgb(170,178,188)" stroke-width="1.1719390904190072" stroke="rgba(0,0,0,0)" stroke-linejoin="miter" stroke-linecap="butt"/></svg>